<?xml version="1.0" standalone="no"?>
<!DOCTYPE svg PUBLIC "-//W3C//DTD SVG 20010904//EN"
 "http://www.w3.org/TR/2001/REC-SVG-20010904/DTD/svg10.dtd">
<svg version="1.0" xmlns="http://www.w3.org/2000/svg"
 width="700.000000pt" height="700.000000pt" viewBox="0 0 700.000000 700.000000"
 preserveAspectRatio="xMidYMid meet">
<metadata>
Created by potrace 1.11, written by Peter Selinger 2001-2013
</metadata>
<g transform="translate(0.000000,700.000000) scale(0.100000,-0.100000)"
fill="#000000" stroke="none">
<path d="M3071 6958 c-34 -78 -213 -482 -234 -528 -11 -25 -21 -47 -22 -50 -1
-3 -8 -21 -17 -40 -8 -19 -39 -89 -68 -155 -28 -66 -67 -153 -86 -193 -19 -41
-34 -75 -34 -77 0 -2 -13 -32 -29 -67 -16 -35 -68 -153 -116 -263 -48 -110
-98 -222 -110 -250 -13 -27 -150 -338 -305 -690 -155 -352 -291 -660 -302
-685 -45 -97 -61 -135 -63 -140 -1 -3 -8 -21 -17 -40 -9 -19 -31 -71 -51 -115
-42 -98 -182 -415 -207 -470 -10 -22 -61 -137 -113 -255 -242 -552 -510 -1159
-527 -1196 -10 -22 -52 -117 -93 -210 -41 -93 -84 -189 -95 -214 -11 -25 -86
-193 -165 -375 -80 -181 -206 -467 -280 -635 l-135 -305 216 -3 c118 -1 219 1
223 5 4 5 43 91 87 193 76 178 113 262 132 305 5 11 102 236 216 500 114 264
217 503 229 530 13 28 46 105 74 173 29 68 56 131 61 140 5 9 26 58 47 107
l38 90 1577 0 1576 0 55 -150 c176 -481 254 -682 302 -780 130 -267 391 -596
615 -774 165 -132 285 -192 582 -292 l147 -49 410 0 411 0 0 125 0 125 -32 0
c-18 0 -53 5 -78 11 -25 6 -52 12 -60 14 -8 2 -37 9 -65 15 -27 6 -72 14 -100
17 -91 10 -308 135 -392 226 -65 70 -129 162 -180 256 -26 47 -75 126 -110
175 -69 96 -156 234 -209 330 -27 49 -354 826 -354 841 0 3 -11 28 -24 57 -13
29 -61 143 -106 253 -45 110 -88 214 -95 230 -7 17 -29 71 -49 120 -20 50 -41
99 -45 110 -5 11 -16 36 -24 55 -9 19 -36 85 -60 145 -25 61 -63 153 -85 205
-21 52 -92 223 -156 380 -65 157 -123 299 -131 315 -27 62 -37 85 -111 265
-41 102 -144 352 -229 555 -292 705 -447 1081 -527 1275 -82 202 -84 205 -117
281 -11 25 -29 70 -41 99 -12 29 -29 72 -39 94 -10 23 -53 128 -97 233 l-79
193 -158 0 -158 0 -18 -42z m-99 -1608 c33 -74 65 -148 73 -165 7 -16 28 -66
48 -110 19 -44 135 -309 257 -590 215 -493 479 -1098 582 -1335 28 -63 59
-133 69 -154 11 -22 19 -43 19 -47 0 -4 14 -38 32 -76 50 -109 159 -356 165
-376 5 -15 -2 -17 -48 -18 -499 -4 -2649 -2 -2649 3 0 8 58 140 113 258 19 41
47 102 62 135 67 148 296 649 334 728 22 49 41 91 41 92 0 2 18 41 39 87 22
46 109 236 194 423 85 187 169 369 185 405 17 36 53 115 80 175 28 61 66 144
85 185 19 41 78 172 132 290 119 264 117 259 123 240 3 -8 32 -76 64 -150z"/>
</g>
</svg>
