<svg xmlns="http://www.w3.org/2000/svg" width="22.802" height="23.213" viewBox="0 0 22.802 23.213">
  <path id="path14" d="M286.95-832.57l4.314,10.066H282.43l4.519-10.066ZM300.3-815.109c-.411,0-.822-.205-1.233-.205a4.491,4.491,0,0,1-1.027-.616,4.3,4.3,0,0,1-.822-1.232,11.463,11.463,0,0,1-1.027-1.643l-7.6-18.694h-1.027L277.5-814.287h1.438l2.876-6.779h10.271l.822,2.26a7.105,7.105,0,0,0,1.438,2.465,5.538,5.538,0,0,0,1.643,1.438,14.141,14.141,0,0,0,1.643.616h2.67v-.822" transform="translate(-277.5 837.5)" fill="#131212" fill-rule="evenodd"/>
</svg>
